<svg width="47" height="47" viewBox="0 0 47 47" fill="none" xmlns="http://www.w3.org/2000/svg">
<circle cx="23.3824" cy="23.3824" r="23.1324" fill="white" stroke="#020610" stroke-width="0.5"/>
<path d="M33.8828 20.4903V28.6323C33.8829 29.4625 33.5653 30.2612 32.9951 30.8646C32.425 31.468 31.6456 31.8303 30.8168 31.8773L30.6328 31.8823H17.1328C16.3027 31.8824 15.504 31.5648 14.9006 30.9947C14.2972 30.4245 13.9348 29.6451 13.8878 28.8163L13.8828 28.6323V20.4903L23.5348 25.5463C23.6422 25.6026 23.7616 25.6319 23.8828 25.6319C24.004 25.6319 24.1234 25.6026 24.2308 25.5463L33.8828 20.4903ZM17.1328 15.8823H30.6328C31.4384 15.8822 32.2153 16.1813 32.8129 16.7216C33.4104 17.2619 33.786 18.0048 33.8668 18.8063L23.8828 24.0363L13.8988 18.8063C13.9763 18.0366 14.3259 17.3198 14.8846 16.7848C15.4433 16.2497 16.1745 15.9315 16.9468 15.8873L17.1328 15.8823H30.6328H17.1328Z" fill="#7F7861"/>
</svg>
