<svg width="47" height="47" viewBox="0 0 47 47" fill="none" xmlns="http://www.w3.org/2000/svg">
<circle cx="23.3824" cy="23.3824" r="23.1324" fill="white" stroke="#020610" stroke-width="0.5"/>
<path d="M32.2336 15.9521L29.4255 13.1466C29.2274 12.9476 28.992 12.7898 28.7327 12.6821C28.4734 12.5744 28.1954 12.519 27.9146 12.519C27.3425 12.519 26.8046 12.7432 26.4012 13.1466L23.3795 16.1683C23.1805 16.3663 23.0227 16.6018 22.915 16.8611C22.8073 17.1203 22.7519 17.3983 22.752 17.6791C22.752 18.2513 22.9761 18.7892 23.3795 19.1926L25.5891 21.4021C25.0719 22.5422 24.3528 23.5793 23.4665 24.4634C22.5825 25.3518 21.5455 26.0735 20.4053 26.5938L18.1957 24.3843C17.9976 24.1853 17.7622 24.0275 17.5029 23.9198C17.2436 23.8121 16.9656 23.7567 16.6849 23.7567C16.1127 23.7567 15.5748 23.9809 15.1714 24.3843L12.1471 27.4033C11.9479 27.6018 11.7899 27.8377 11.6822 28.0974C11.5745 28.3571 11.5192 28.6356 11.5195 28.9168C11.5195 29.489 11.7437 30.0269 12.1471 30.4303L14.9499 33.2331C15.5933 33.8791 16.4818 34.2456 17.3941 34.2456C17.5866 34.2456 17.7712 34.2298 17.9531 34.1981C21.5074 33.6128 25.0327 31.7223 27.8777 28.8799C30.7201 26.0401 32.608 22.5175 33.2013 18.9526C33.3806 17.8637 33.0193 16.7431 32.2336 15.9521V15.9521Z" fill="#7F7861"/>
</svg>
